HIERARCHY
ROOT Hips
{
	OFFSET 0.000000 0.000000 0.000000
	CHANNELS 6 Xposition Yposition Zposition Xrotation Yrotation Zrotation
	JOINT Spine
	{
		OFFSET 0.000000 0.053497 0.080245
		CHANNELS 3 Xrotation Yrotation Zrotation
		JOINT Spine1
		{
			OFFSET 0.000000 0.018579 0.105368
			CHANNELS 3 Xrotation Yrotation Zrotation
			JOINT Spine2
			{
				OFFSET 0.000000 0.009325 0.106586
				CHANNELS 3 Xrotation Yrotation Zrotation
				JOINT Spine3
				{
					OFFSET 0.000000 0.000000 0.106993
					CHANNELS 3 Xrotation Yrotation Zrotation
					JOINT Neck
					{
						OFFSET 0.000000 -0.040122 0.280858
						CHANNELS 3 Xrotation Yrotation Zrotation
						JOINT Head
						{
							OFFSET 0.000000 -0.025546 0.144881
							CHANNELS 3 Xrotation Yrotation Zrotation
							End Site
							{
								OFFSET 0.000000 0.000000 0.000000
							}
						}
					}
					JOINT RightShoulder
					{
						OFFSET -0.032541 -0.054234 0.175720
						CHANNELS 3 Xrotation Yrotation Zrotation
						JOINT RightArm
						{
							OFFSET -0.161619 0.000000 0.000000
							CHANNELS 3 Xrotation Yrotation Zrotation
							JOINT RightForeArm
							{
								OFFSET -0.257104 0.000000 0.000000
								CHANNELS 3 Xrotation Yrotation Zrotation
								JOINT RightHand
								{
									OFFSET -0.273485 0.000000 0.000000
									CHANNELS 3 Xrotation Yrotation Zrotation
									JOINT RightHandEnd
									{
										OFFSET -0.070844 0.000000 0.000000
										CHANNELS 3 Xrotation Yrotation Zrotation
										End Site
										{
											OFFSET 0.000000 0.000000 0.000000
										}
									}
									JOINT RightHandThumb1
									{
										OFFSET -0.028338 -0.047230 -0.018892
										CHANNELS 3 Xrotation Yrotation Zrotation
										End Site
										{
											OFFSET 0.000000 0.000000 0.000000
										}
									}
								}
							}
						}
					}
					JOINT LeftShoulder
					{
						OFFSET 0.032541 -0.054234 0.175720
						CHANNELS 3 Xrotation Yrotation Zrotation
						JOINT LeftArm
						{
							OFFSET 0.161619 0.000000 0.000000
							CHANNELS 3 Xrotation Yrotation Zrotation
							JOINT LeftForeArm
							{
								OFFSET 0.257104 0.000000 0.000000
								CHANNELS 3 Xrotation Yrotation Zrotation
								JOINT LeftHand
								{
									OFFSET 0.273485 0.000000 0.000000
									CHANNELS 3 Xrotation Yrotation Zrotation
									JOINT LeftHandEnd
									{
										OFFSET 0.070844 0.000000 0.000000
										CHANNELS 3 Xrotation Yrotation Zrotation
										End Site
										{
											OFFSET 0.000000 0.000000 0.000000
										}
									}
									JOINT LeftHandThumb1
									{
										OFFSET 0.028338 -0.047230 -0.018892
										CHANNELS 3 Xrotation Yrotation Zrotation
										End Site
										{
											OFFSET 0.000000 0.000000 0.000000
										}
									}
								}
							}
						}
					}
				}
			}
		}
	}
	JOINT RightUpLeg
	{
		OFFSET -0.096537 0.000000 -0.028202
		CHANNELS 3 Xrotation Yrotation Zrotation
		JOINT RightLeg
		{
			OFFSET 0.000000 0.000000 -0.431842
			CHANNELS 3 Xrotation Yrotation Zrotation
			JOINT RightFoot
			{
				OFFSET 0.000000 0.000000 -0.456398
				CHANNELS 3 Xrotation Yrotation Zrotation
				JOINT RightToeBase
				{
					OFFSET 0.000000 -0.128905 -0.046918
					CHANNELS 3 Xrotation Yrotation Zrotation
					End Site
					{
						OFFSET 0.000000 0.000000 0.000000
					}
				}
			}
		}
	}
	JOINT LeftUpLeg
	{
		OFFSET 0.096537 0.000000 -0.028202
		CHANNELS 3 Xrotation Yrotation Zrotation
		JOINT LeftLeg
		{
			OFFSET 0.000000 0.000000 -0.431842
			CHANNELS 3 Xrotation Yrotation Zrotation
			JOINT LeftFoot
			{
				OFFSET 0.000000 0.000000 -0.456398
				CHANNELS 3 Xrotation Yrotation Zrotation
				JOINT LeftToeBase
				{
					OFFSET 0.000000 -0.128905 -0.046918
					CHANNELS 3 Xrotation Yrotation Zrotation
					End Site
					{
						OFFSET 0.000000 0.000000 0.000000
					}
				}
			}
		}
	}
}
MOTION
Frames: 13
Frame Time: 0.033333
0.181066 -2.646743 0.942627 -0.884600 -2.285900 178.302800 2.064300 -3.588900 0.942300 0.850100 -0.608600 0.069900 2.882300 -1.346600 1.583800 0.985600 -1.054500 1.161400 -6.109100 -0.218800 3.737300 -4.045300 2.603700 4.441400 9.642800 -5.677100 9.449400 38.128100 -51.182600 38.027300 0.000000 0.000000 28.069400 -3.292400 3.960000 0.117600 0.000000 0.000000 0.000000 0.000000 0.000000 0.000000 12.106300 10.991200 -9.879100 38.618900 56.986800 -37.590800 0.000000 0.000000 -23.306100 -14.854500 -15.443600 0.102300 0.000000 0.000000 0.000000 0.000000 0.000000 0.000000 -5.981700 -0.735300 -8.814300 20.685100 0.000000 0.000000 -15.490400 3.763200 -8.259800 -2.907900 0.000000 0.000000 -22.076800 -7.722100 4.838900 15.215700 0.000000 0.000000 -3.182000 11.479900 4.604200 -9.081100 0.000000 0.000000 
0.175763 -2.630876 0.940483 -1.116900 -2.834300 177.832700 2.108900 -3.856300 1.002000 0.846800 -0.764700 0.086900 2.969300 -1.290400 2.077000 0.987500 -1.081300 1.267400 -6.593500 0.101000 3.652000 -3.669400 2.475200 3.953400 9.811500 -5.527400 9.733400 39.519100 -51.031000 39.234000 0.000000 0.000000 27.039100 -3.112300 3.619300 -0.085900 0.000000 0.000000 0.000000 0.000000 0.000000 0.000000 12.173400 11.053600 -9.476400 39.420100 56.855700 -37.809100 0.000000 0.000000 -22.240900 -14.527100 -16.084900 -0.287600 0.000000 0.000000 0.000000 0.000000 0.000000 0.000000 -4.998900 -0.853800 -9.216900 20.298200 0.000000 0.000000 -16.133200 3.410500 -7.507700 -2.512100 0.000000 0.000000 -22.914400 -8.285200 4.951900 16.019100 0.000000 0.000000 -3.793800 8.454700 6.637800 -10.075300 0.000000 0.000000 
0.169695 -2.612868 0.938284 -1.311800 -3.341300 177.347200 2.100800 -4.036700 1.020000 0.819300 -0.890300 0.105500 3.054200 -1.176200 2.515400 0.996300 -1.091400 1.341100 -6.972700 0.357300 3.578400 -3.320300 2.251400 3.581400 9.960300 -5.425600 9.950600 41.234100 -50.838900 40.701500 0.000000 0.000000 25.871300 -2.773500 3.348000 -0.275900 0.000000 0.000000 0.000000 0.000000 0.000000 0.000000 12.268000 11.159400 -9.052600 39.497800 57.216400 -37.117200 0.000000 0.000000 -21.029400 -15.060300 -15.914300 -0.094100 0.000000 0.000000 0.000000 0.000000 0.000000 0.000000 -3.675200 -0.869900 -9.710000 19.607600 0.000000 0.000000 -16.881700 2.917400 -6.606800 -2.364700 0.000000 0.000000 -23.862800 -8.743400 4.662600 18.765300 0.000000 0.000000 -4.529700 6.690600 9.231000 -9.764400 0.000000 0.000000 
0.162486 -2.592108 0.936249 -1.330400 -3.631300 177.192500 2.057300 -4.050600 0.968000 0.783200 -0.911200 0.122900 3.169100 -0.993100 2.729800 1.019000 -1.049500 1.329400 -7.209500 0.495300 3.387800 -3.111100 1.944800 3.277900 10.067200 -5.431300 10.011400 43.054400 -50.798000 42.197900 0.000000 0.000000 24.705700 -2.383500 3.122300 -0.354300 0.000000 0.000000 0.000000 0.000000 0.000000 0.000000 12.465400 11.152000 -8.645400 39.142800 57.856400 -36.005900 0.000000 0.000000 -19.589600 -16.454400 -15.229400 0.513300 0.000000 0.000000 0.000000 0.000000 0.000000 0.000000 -1.790500 -0.609600 -10.375200 18.522200 0.000000 0.000000 -17.583900 2.152600 -5.635800 -2.181100 0.000000 0.000000 -24.646100 -8.692900 3.868200 22.550700 0.000000 0.000000 -6.216300 7.166100 11.262900 -6.584300 0.000000 0.000000 
0.153446 -2.568760 0.934397 -1.248100 -3.343900 177.565100 1.869200 -3.658800 0.806400 0.674200 -0.833000 0.135200 3.378200 -0.661100 2.720100 1.063200 -0.949100 1.217900 -7.322300 0.552400 2.994500 -2.878500 1.545600 2.895000 10.185600 -5.506600 9.910200 44.584800 -51.238600 43.337700 0.000000 0.000000 23.789800 -2.013400 2.872400 -0.406400 0.000000 0.000000 0.000000 0.000000 0.000000 0.000000 12.700000 10.967600 -8.258700 39.214200 58.265800 -35.464100 0.000000 0.000000 -17.809800 -17.699600 -14.414600 1.395500 0.000000 0.000000 0.000000 0.000000 0.000000 0.000000 0.432200 0.276700 -11.257800 17.275600 0.000000 0.000000 -18.063500 1.654800 -5.118500 -1.827000 0.000000 0.000000 -25.067100 -7.612700 2.657300 26.094400 0.000000 0.000000 -9.027700 8.736100 12.521400 -1.875700 0.000000 0.000000 
0.142486 -2.543838 0.932370 -1.250100 -2.305000 178.340200 1.480200 -2.784000 0.550200 0.445200 -0.587000 0.159800 3.652000 -0.195400 2.602800 1.119300 -0.800800 1.039400 -7.286600 0.587100 2.410700 -2.500600 1.021300 2.394100 10.390200 -5.636600 9.672400 45.691800 -52.105200 44.022100 0.000000 0.000000 23.278200 -1.708700 2.552600 -0.492300 0.000000 0.000000 0.000000 0.000000 0.000000 0.000000 12.819400 10.752900 -7.902200 40.025700 58.095400 -35.692600 0.000000 0.000000 -15.859500 -18.025700 -13.415200 2.405700 0.000000 0.000000 0.000000 0.000000 0.000000 0.000000 2.359700 1.909600 -11.755200 16.644300 0.000000 0.000000 -18.599900 1.509500 -5.816800 -1.454200 0.000000 0.000000 -25.050900 -5.400900 1.217200 28.685000 0.000000 0.000000 -12.061300 10.020000 13.604600 2.184000 0.000000 0.000000 
0.130619 -2.518753 0.929978 -1.445000 -0.845900 179.218800 1.000900 -1.710100 0.288600 0.140500 -0.208800 0.191400 3.845100 0.403200 2.475600 1.170300 -0.630500 0.840100 -7.040700 0.587800 1.728200 -2.202700 0.392100 1.879200 10.625300 -5.965100 9.328400 46.693000 -52.745400 44.558800 0.000000 0.000000 23.039300 -1.617700 2.231200 -0.503700 0.000000 0.000000 0.000000 0.000000 0.000000 0.000000 12.742100 10.783500 -7.649900 40.891500 57.327900 -35.812300 0.000000 0.000000 -14.113900 -17.669000 -12.213100 3.355400 0.000000 0.000000 0.000000 0.000000 0.000000 0.000000 3.122600 3.885600 -10.739400 17.974900 0.000000 0.000000 -19.418800 1.259900 -8.146800 -1.407600 0.000000 0.000000 -24.649900 -2.636700 -0.188700 30.339400 0.000000 0.000000 -14.566100 10.629000 14.957000 5.250200 0.000000 0.000000 
0.118814 -2.494658 0.927804 -1.724500 0.652700 -179.991400 0.688000 -0.609800 0.101900 -0.119900 0.171100 0.220300 3.806600 1.000000 2.304800 1.190100 -0.448100 0.621500 -6.573500 0.533200 1.099300 -2.313100 -0.188900 1.459300 10.765800 -6.439800 8.982900 47.919400 -52.739600 45.373300 0.000000 0.000000 22.746600 -1.741800 2.052500 -0.382400 0.000000 0.000000 0.000000 0.000000 0.000000 0.000000 12.569100 11.081300 -7.526700 41.350900 56.224400 -35.604200 0.000000 0.000000 -12.670500 -17.361000 -11.286500 4.187000 0.000000 0.000000 0.000000 0.000000 0.000000 0.000000 2.015500 5.706000 -8.096300 22.593400 0.000000 0.000000 -19.644600 1.629000 -11.961500 -2.408500 0.000000 0.000000 -23.874500 0.092300 -1.266800 31.215800 0.000000 0.000000 -16.470600 10.733600 16.336000 7.930300 0.000000 0.000000 
0.107229 -2.472126 0.926661 -2.042500 2.176200 -179.351900 0.568600 0.727800 -0.002700 -0.217500 0.433500 0.229200 3.512900 1.372000 2.036000 1.162200 -0.284700 0.405400 -5.958200 0.485400 0.676300 -2.813100 -0.524300 1.154800 10.772000 -6.565300 8.781400 49.291200 -52.592300 46.642100 0.000000 0.000000 22.240500 -1.738600 2.024400 -0.291700 0.000000 0.000000 0.000000 0.000000 0.000000 0.000000 12.422800 11.213900 -7.486100 41.734400 55.338500 -35.987000 0.000000 0.000000 -11.405600 -17.344800 -11.077600 5.041700 0.000000 0.000000 0.000000 0.000000 0.000000 0.000000 -1.132100 7.279900 -5.399400 30.472800 0.000000 0.000000 -16.979600 4.197800 -16.716400 -5.236800 0.000000 0.000000 -22.773000 2.649400 -1.750600 31.262000 0.000000 0.000000 -17.890100 10.607500 17.245600 10.018700 0.000000 0.000000 
0.096360 -2.450249 0.927207 -2.168000 3.578800 -178.872100 0.642200 2.239900 -0.148300 -0.124900 0.560800 0.217000 3.186700 1.439000 1.724400 1.106500 -0.198400 0.260500 -5.324300 0.497500 0.486300 -3.322600 -0.564200 0.972200 10.733000 -6.051000 8.779500 50.397000 -52.881500 48.119000 0.000000 0.000000 21.740100 -1.439400 1.993900 -0.372000 0.000000 0.000000 0.000000 0.000000 0.000000 0.000000 12.327700 10.851900 -7.532400 42.189400 55.052800 -37.326900 0.000000 0.000000 -10.525100 -17.316500 -11.370200 5.850500 0.000000 0.000000 0.000000 0.000000 0.000000 0.000000 -5.387600 8.529100 -3.718600 39.669900 0.000000 0.000000 -9.938100 8.395100 -21.808000 -10.042000 0.000000 0.000000 -21.042000 4.732300 -1.450400 30.402800 0.000000 0.000000 -18.833600 10.715500 17.329100 10.959600 0.000000 0.000000 
0.087379 -2.427925 0.929302 -1.869800 4.536500 -178.564900 0.956900 3.540200 -0.384400 0.120700 0.627800 0.202100 3.008400 1.303900 1.391100 1.073100 -0.203300 0.208800 -4.733300 0.480900 0.419100 -3.646500 -0.435500 0.927500 10.670700 -5.391300 8.889500 50.868500 -53.309900 49.163700 0.000000 0.000000 21.700000 -1.195000 1.932100 -0.476300 0.000000 0.000000 0.000000 0.000000 0.000000 0.000000 12.261100 10.285600 -7.747100 42.218300 55.024900 -38.610100 0.000000 0.000000 -10.646700 -17.089400 -11.553500 6.208300 0.000000 0.000000 0.000000 0.000000 0.000000 0.000000 -9.761200 9.184100 -2.862200 48.349700 0.000000 0.000000 -2.385300 10.952900 -25.259900 -14.934900 0.000000 0.000000 -18.460900 5.897600 -0.287200 28.873900 0.000000 0.000000 -19.373300 11.361500 16.440200 11.233400 0.000000 0.000000 
0.080815 -2.405322 0.932023 -1.345000 4.954600 -178.199300 1.422900 4.450000 -0.650100 0.384300 0.740200 0.181900 2.972200 1.033200 0.865000 1.085100 -0.247400 0.174000 -4.111200 0.285400 0.328700 -3.995000 -0.281200 0.981300 10.547600 -5.279900 8.924700 50.616800 -53.208800 49.332700 0.000000 0.000000 22.364500 -1.292800 2.129800 -0.355100 0.000000 0.000000 0.000000 0.000000 0.000000 0.000000 12.247800 10.011900 -8.126100 41.746100 54.286900 -39.238000 0.000000 0.000000 -11.962000 -16.930700 -11.479200 5.852200 0.000000 0.000000 0.000000 0.000000 0.000000 0.000000 -14.006400 9.212800 -2.865600 55.718400 0.000000 0.000000 -0.057300 11.080100 -25.067100 -16.992100 0.000000 0.000000 -15.508800 6.240800 1.266500 27.167300 0.000000 0.000000 -19.712500 12.181400 14.822100 11.761200 0.000000 0.000000 
0.076121 -2.382566 0.934862 -0.775800 4.953800 -177.412000 1.973800 5.047200 -0.897600 0.632200 0.871200 0.138600 2.980900 0.636000 0.019600 1.125500 -0.263200 0.072100 -3.371900 -0.143300 0.101000 -4.499600 -0.147000 1.020100 10.316900 -5.770400 8.726100 49.823600 -52.766700 48.722400 0.000000 0.000000 23.588100 -1.357800 2.873000 0.027300 0.000000 0.000000 0.000000 0.000000 0.000000 0.000000 12.188600 10.083700 -8.591000 41.481000 52.268600 -39.832800 0.000000 0.000000 -13.970200 -16.988100 -11.665900 5.087200 0.000000 0.000000 0.000000 0.000000 0.000000 0.000000 -17.894500 8.913300 -4.026500 60.915100 0.000000 0.000000 -2.358200 9.962900 -22.764300 -16.039800 0.000000 0.000000 -12.543100 6.214500 2.224800 25.500900 0.000000 0.000000 -20.002200 12.641500 13.144600 12.360300 0.000000 0.000000 
